<?xml version="1.0" encoding="iso-8859-1"?>
<!-- Generator: Adobe Illustrator 19.0.0, SVG Export Plug-In . SVG Version: 6.00 Build 0)  -->
<svg version="1.1" id="Layer_1" xmlns="http://www.w3.org/2000/svg" xmlns:xlink="http://www.w3.org/1999/xlink" x="0px" y="0px"
	 viewBox="0 0 30 30" style="enable-background:new 0 0 30 30;" xml:space="preserve">
<g>
	<path d="M15,12.017c-1.644,0-2.983,1.338-2.983,2.983c0,1.645,1.339,2.984,2.983,2.984c1.645,0,2.983-1.339,2.983-2.984
		C17.983,13.355,16.645,12.017,15,12.017L15,12.017z M15,12.017c-1.644,0-2.983,1.338-2.983,2.983c0,1.645,1.339,2.984,2.983,2.984
		c1.645,0,2.983-1.339,2.983-2.984C17.983,13.355,16.645,12.017,15,12.017L15,12.017z M19.97,7.153H10.03
		c-1.586,0-2.877,1.291-2.877,2.877v9.939c0,1.587,1.291,2.877,2.877,2.877h9.939c1.587,0,2.877-1.291,2.877-2.877V10.03
		C22.847,8.444,21.556,7.153,19.97,7.153L19.97,7.153z M15,20.166c-2.848,0-5.166-2.318-5.166-5.167
		c0-2.848,2.318-5.166,5.166-5.166c2.849,0,5.167,2.318,5.167,5.166C20.166,17.848,17.848,20.166,15,20.166L15,20.166z
		 M20.332,10.902c-0.674,0-1.223-0.548-1.223-1.222c0-0.674,0.548-1.222,1.223-1.222c0.674,0,1.222,0.548,1.222,1.222
		C21.555,10.353,21.006,10.902,20.332,10.902L20.332,10.902z M15,12.017c-1.644,0-2.983,1.338-2.983,2.983
		c0,1.645,1.339,2.984,2.983,2.984c1.645,0,2.983-1.339,2.983-2.984C17.983,13.355,16.645,12.017,15,12.017L15,12.017z M19.97,7.153
		H10.03c-1.586,0-2.877,1.291-2.877,2.877v9.939c0,1.587,1.291,2.877,2.877,2.877h9.939c1.587,0,2.877-1.291,2.877-2.877V10.03
		C22.847,8.444,21.556,7.153,19.97,7.153L19.97,7.153z M15,20.166c-2.848,0-5.166-2.318-5.166-5.167
		c0-2.848,2.318-5.166,5.166-5.166c2.849,0,5.167,2.318,5.167,5.166C20.166,17.848,17.848,20.166,15,20.166L15,20.166z
		 M20.332,10.902c-0.674,0-1.223-0.548-1.223-1.222c0-0.674,0.548-1.222,1.223-1.222c0.674,0,1.222,0.548,1.222,1.222
		C21.555,10.353,21.006,10.902,20.332,10.902L20.332,10.902z M15,12.017c-1.644,0-2.983,1.338-2.983,2.983
		c0,1.645,1.339,2.984,2.983,2.984c1.645,0,2.983-1.339,2.983-2.984C17.983,13.355,16.645,12.017,15,12.017L15,12.017z M0,0v30h30V0
		H0z M25.03,19.97c0,2.791-2.27,5.06-5.06,5.06H10.03c-2.79,0-5.06-2.27-5.06-5.06V10.03c0-2.79,2.27-5.06,5.06-5.06h9.939
		c2.791,0,5.06,2.27,5.06,5.06V19.97z M19.97,7.153H10.03c-1.586,0-2.877,1.291-2.877,2.877v9.939c0,1.587,1.291,2.877,2.877,2.877
		h9.939c1.587,0,2.877-1.291,2.877-2.877V10.03C22.847,8.444,21.556,7.153,19.97,7.153L19.97,7.153z M15,20.166
		c-2.848,0-5.166-2.318-5.166-5.167c0-2.848,2.318-5.166,5.166-5.166c2.849,0,5.167,2.318,5.167,5.166
		C20.166,17.848,17.848,20.166,15,20.166L15,20.166z M20.332,10.902c-0.674,0-1.223-0.548-1.223-1.222
		c0-0.674,0.548-1.222,1.223-1.222c0.674,0,1.222,0.548,1.222,1.222C21.555,10.353,21.006,10.902,20.332,10.902L20.332,10.902z
		 M15,12.017c-1.644,0-2.983,1.338-2.983,2.983c0,1.645,1.339,2.984,2.983,2.984c1.645,0,2.983-1.339,2.983-2.984
		C17.983,13.355,16.645,12.017,15,12.017L15,12.017z M15,12.017c-1.644,0-2.983,1.338-2.983,2.983c0,1.645,1.339,2.984,2.983,2.984
		c1.645,0,2.983-1.339,2.983-2.984C17.983,13.355,16.645,12.017,15,12.017L15,12.017z M15,12.017c-1.644,0-2.983,1.338-2.983,2.983
		c0,1.645,1.339,2.984,2.983,2.984c1.645,0,2.983-1.339,2.983-2.984C17.983,13.355,16.645,12.017,15,12.017L15,12.017z M19.97,7.153
		H10.03c-1.586,0-2.877,1.291-2.877,2.877v9.939c0,1.587,1.291,2.877,2.877,2.877h9.939c1.587,0,2.877-1.291,2.877-2.877V10.03
		C22.847,8.444,21.556,7.153,19.97,7.153L19.97,7.153z M15,20.166c-2.848,0-5.166-2.318-5.166-5.167
		c0-2.848,2.318-5.166,5.166-5.166c2.849,0,5.167,2.318,5.167,5.166C20.166,17.848,17.848,20.166,15,20.166L15,20.166z
		 M20.332,10.902c-0.674,0-1.223-0.548-1.223-1.222c0-0.674,0.548-1.222,1.223-1.222c0.674,0,1.222,0.548,1.222,1.222
		C21.555,10.353,21.006,10.902,20.332,10.902L20.332,10.902z M15,12.017c-1.644,0-2.983,1.338-2.983,2.983
		c0,1.645,1.339,2.984,2.983,2.984c1.645,0,2.983-1.339,2.983-2.984C17.983,13.355,16.645,12.017,15,12.017L15,12.017z M15,12.017
		c-1.644,0-2.983,1.338-2.983,2.983c0,1.645,1.339,2.984,2.983,2.984c1.645,0,2.983-1.339,2.983-2.984
		C17.983,13.355,16.645,12.017,15,12.017L15,12.017z M15,12.017c-1.644,0-2.983,1.338-2.983,2.983c0,1.645,1.339,2.984,2.983,2.984
		c1.645,0,2.983-1.339,2.983-2.984C17.983,13.355,16.645,12.017,15,12.017L15,12.017z M19.97,7.153H10.03
		c-1.586,0-2.877,1.291-2.877,2.877v9.939c0,1.587,1.291,2.877,2.877,2.877h9.939c1.587,0,2.877-1.291,2.877-2.877V10.03
		C22.847,8.444,21.556,7.153,19.97,7.153L19.97,7.153z M15,20.166c-2.848,0-5.166-2.318-5.166-5.167
		c0-2.848,2.318-5.166,5.166-5.166c2.849,0,5.167,2.318,5.167,5.166C20.166,17.848,17.848,20.166,15,20.166L15,20.166z
		 M20.332,10.902c-0.674,0-1.223-0.548-1.223-1.222c0-0.674,0.548-1.222,1.223-1.222c0.674,0,1.222,0.548,1.222,1.222
		C21.555,10.353,21.006,10.902,20.332,10.902L20.332,10.902z M15,12.017c-1.644,0-2.983,1.338-2.983,2.983
		c0,1.645,1.339,2.984,2.983,2.984c1.645,0,2.983-1.339,2.983-2.984C17.983,13.355,16.645,12.017,15,12.017L15,12.017z M15,12.017"
		/>
</g>
</svg>
