<?xml version="1.0" encoding="iso-8859-1"?>
<!-- Generator: Adobe Illustrator 19.0.0, SVG Export Plug-In . SVG Version: 6.00 Build 0)  -->
<svg version="1.1" id="Layer_1" xmlns="http://www.w3.org/2000/svg" xmlns:xlink="http://www.w3.org/1999/xlink" x="0px" y="0px"
	 viewBox="0 0 30 30" style="enable-background:new 0 0 30 30;" xml:space="preserve">
<g>
	<path d="M0,0v30h30V0H0z M23.782,10.792c0.007,0.176,0.011,0.353,0.011,0.531c0,7.132-5.782,12.914-12.914,12.914
		c-2.539,0-4.907-0.733-6.904-1.999c0,0-0.001,0-0.001,0h0.001c3.903,0.582,6.653-1.902,6.653-1.902
		c-3.478-0.271-4.165-3.165-4.165-3.165c1.229,0.208,1.999-0.084,1.999-0.084C4.547,16.172,4.88,12.59,4.88,12.59
		c0.906,0.542,1.957,0.584,1.957,0.584C3.38,10.133,5.546,7.176,5.546,7.176c3.624,4.389,8.951,4.687,9.301,4.702
		c-0.077-0.33-0.117-0.673-0.117-1.026c0-2.501,2.028-4.529,4.531-4.529c1.305,0,2.481,0.551,3.308,1.434
		c0.229-0.064,0.452-0.134,0.664-0.204c1.283-0.428,2.2-0.917,2.2-0.917c-0.221,1.325-1.855,2.437-1.972,2.515
		c-0.005,0.003-0.007,0.004-0.007,0.004c0.002,0,0.005-0.001,0.008-0.001c1.268-0.127,2.564-0.665,2.564-0.665
		C25.635,9.31,24.04,10.589,23.782,10.792L23.782,10.792z M23.782,10.792"/>
</g>
</svg>
