<?xml version="1.0" encoding="iso-8859-1"?>
<!-- Generator: Adobe Illustrator 19.0.0, SVG Export Plug-In . SVG Version: 6.00 Build 0)  -->
<svg version="1.1" id="Layer_1" xmlns="http://www.w3.org/2000/svg" xmlns:xlink="http://www.w3.org/1999/xlink" x="0px" y="0px"
	 viewBox="0 0 30 30" style="enable-background:new 0 0 30 30;" xml:space="preserve">
<g>
	<path style="fill-rule:evenodd;clip-rule:evenodd;" d="M0,0v30h30V0H0z M25.021,19.91c-0.255,1.104-1.158,1.92-2.246,2.041
		c-2.574,0.287-5.181,0.289-7.777,0.287c-2.595,0.002-5.202,0-7.777-0.287c-1.088-0.121-1.991-0.937-2.244-2.041
		c-0.362-1.572-0.362-3.29-0.362-4.91c0-1.62,0.004-3.337,0.366-4.909c0.253-1.105,1.157-1.92,2.243-2.041
		c2.575-0.288,5.183-0.289,7.778-0.288c2.595-0.001,5.202,0,7.777,0.288c1.088,0.121,1.991,0.936,2.246,2.041
		c0.362,1.572,0.359,3.289,0.359,4.909C25.385,16.619,25.384,18.337,25.021,19.91L25.021,19.91z M25.021,19.91"/>
	<path style="fill-rule:evenodd;clip-rule:evenodd;" d="M12.32,18.224c2.207-1.145,4.394-2.279,6.602-3.424
		c-2.215-1.156-4.402-2.296-6.602-3.444V18.224z M12.32,18.224"/>
</g>
</svg>
