<?xml version="1.0" encoding="iso-8859-1"?>
<!-- Generator: Adobe Illustrator 19.0.0, SVG Export Plug-In . SVG Version: 6.00 Build 0)  -->
<svg version="1.1" id="Layer_1" xmlns="http://www.w3.org/2000/svg" xmlns:xlink="http://www.w3.org/1999/xlink" x="0px" y="0px"
	 viewBox="0 0 126.096 126.196" style="enable-background:new 0 0 126.096 126.196;" xml:space="preserve">
<path id="XMLID_19_" style="fill-rule:evenodd;clip-rule:evenodd;fill:#FFFFFF;" d="M63.1,0C28.34,0,0,28.342,0,63.098
	c0,34.739,28.34,63.098,63.1,63.098c34.738,0,63.092-28.359,63.092-63.098C126.192,28.342,97.838,0,63.1,0z M41.136,105.232
	c-15.176-7.95-25.572-23.864-25.572-42.134c0-26.182,21.352-47.535,47.536-47.535c26.178,0,47.534,21.353,47.534,47.535
	c0,2.286-0.173,4.537-0.482,6.751l-6.01-5.68l0.462-0.351l-0.227-0.298l-0.125-0.145l-0.367-0.239c-0.056,0-0.278-0.076-0.354-0.076
	l-0.218-0.017h-0.221l-0.075-0.017l-0.147,0.072l-0.149-0.015l-0.163,0.144l-0.293,0.185v-0.315
	c0-21.57-17.593-39.162-39.164-39.162c-8.579,0-16.525,2.764-22.976,7.468l-2.01-1.274l-2.638,5.236
	c-7.136,7.101-11.543,16.909-11.543,27.731c0,17.498,11.579,32.395,27.475,37.375C48.01,101.985,44.604,103.571,41.136,105.232z
	 M92.929,69.017l-8.999-8.203l0.466-0.426l-2.619-2.268l-0.056-0.221c-0.13-0.516-0.13-1.036-0.794-1.383
	c-0.481-0.221-1.438-0.482-1.901-0.534c-1.253-0.167-2.673-0.405-4.073-1.753c-1.457-1.401-2.252-1.659-4.131-3.319
	c-1.658-1.474-6.876-4.35-7.964-4.552c-0.576-0.499-1.053-1.18-0.388-2.657c0.316-0.184,0.589-0.424,0.828-0.717
	c0.371-0.482,0.774-1.071,0.795-1.771c0-0.259,0.11-0.499,0.089-0.738c-0.111-1.879-1.272-2.543-2.781-2.617
	c-1.072-0.039-2.397,0.589-3.025,1.696c-0.129,0.257-0.61,0.866-0.814,1.458c-0.311,0.975-0.311,2.063-0.164,2.468
	c0.334,0.831,2.14,0.699,2.14,1.384c0.461,1.586-1.772,2.453-2.822,3.597c-0.589,0.626-4.536,3.593-5.607,3.559
	c0.368-1.126,1.053-3.542,1.902-5.737c0.054-0.145,0.607-0.661,0.607-1.051c0.039-0.498,0.108-1.181,0.478-1.271
	c0.26-0.112,0.628-0.221,1.016-0.203l0.701-2.34l-14.384-9.165c6.143-4.333,13.608-6.876,21.67-6.876
	c20.759,0,37.721,16.944,37.7,37.723c0,0.406,0,0.811-0.015,1.203L92.929,69.017z M100.636,66.805
	c-0.331,3.373-1.122,6.62-2.283,9.679l-3.577-5.77L100.636,66.805z M65.125,94.038c-0.145,0.572-0.63,0.827-0.904,1.126
	c-3.577,1.38-7.136,2.838-10.747,4.406C37.338,95.291,25.372,80.56,25.372,63.098c0-9.347,3.446-17.919,9.105-24.522l16.251,4.515
	c-0.024,0.37-0.28,1.254-0.222,1.642c0.085,0.881,0.787,1.285,0.85,1.272c0.023-0.224,0.026-0.277,0.012,0
	c0,0.002-0.009-0.001-0.012,0c-0.045,0.431-0.168,1.509-0.411,2.176c-0.791,2.25-2.119,4.333-1.53,5.955
	c0.147,0.37,1.879,0.203,2.656-0.128c0.719-0.312,4.574-2.562,5.198-2.526c-0.22,2.49-0.703,5.845-0.569,7.946
	c0.551,9.717,4.275,16.908,7.153,23.049c1.271,2.712,2.509,4.942,2.38,7.891C66.14,91.955,65.492,92.804,65.125,94.038z
	 M67.225,94.02c0.391-0.606,0.849-1.805,1.29-1.992c1.184-0.497,1.661-0.977,1.754-1.217c0.058-0.242,0.204-0.793-0.458-1.512
	c-0.295-0.316-0.922-0.643-1.254-1.144c-0.391-0.646-0.926-1.346-1.183-2.379c-1.271-4.866-1.859-8.405-3.28-9.551
	c-0.185-0.146-0.094-0.424-0.113-0.571c-0.385-2.967-0.458-4.811-0.443-7.538c0.02-0.758-0.055-1.771-0.055-2.637
	c-0.017-2.95-1.162-3.155-1.271-6.457c-0.146-3.242,1.014-6.893,1.624-8.83c5.126,0.555,8.629,4.296,11.669,5.919
	c0.077,0.056,0.205,0.112,0.37,0.167c0.702,0.257,2.156,1.216,2.839,1.31c0.572,0.074,0.683,0.738,1.073,1.03
	c0.22,0.167,0.496,0.222,0.754,0.242l-0.129,0.13l2.599,2.653l0.312-0.202l9.147,8.222l1.125,1.293l4.22,6.858
	c-1.271,2.986-2.93,5.772-4.886,8.316C84.171,88.249,75.709,90.866,67.225,94.02z M95.106,85.612
	c1.399-1.993,2.622-4.092,3.631-6.306l2.99,4.868C99.496,84.636,97.302,85.093,95.106,85.612z M106.078,83.363
	c-1.05,0.182-2.101,0.386-3.134,0.59l-3.653-5.918c1.588-3.837,2.583-7.947,2.878-12.263l1.438-0.956l6.36,6.139
	C109.249,75.323,107.9,79.49,106.078,83.363z M121.087,81.188c-4.388,0.494-8.648,1.086-12.839,1.787
	c1.479-3.319,2.605-6.84,3.305-10.49l6.272,6.044l0.68-0.79l-6.752-6.38c0.467-2.695,0.701-5.439,0.701-8.261
	c0-27.194-22.176-49.36-49.354-49.36c-27.2,0-49.362,22.166-49.362,49.36c0,18.496,10.251,34.666,25.368,43.107
	c-3.851,1.882-7.762,3.874-11.762,5.958c-15.137-11.063-25-28.948-25-49.065C2.343,29.63,29.634,2.342,63.1,2.342
	c33.463,0,60.755,27.288,60.755,60.755C123.854,69.388,122.889,75.472,121.087,81.188z"/>
<g id="XMLID_102_">
</g>
<g id="XMLID_103_">
</g>
<g id="XMLID_104_">
</g>
<g id="XMLID_105_">
</g>
<g id="XMLID_106_">
</g>
<g id="XMLID_107_">
</g>
</svg>
